<svg width="64" height="64" viewBox="0 0 64 64" fill="none" xmlns="http://www.w3.org/2000/svg">
<rect width="64" height="64" rx="32" fill="#2BE900"/>
<g clip-path="url(#clip0_596_1577)">
<path d="M23.3281 30.2219H18.666L28.791 42.0275C28.8122 42.056 28.8435 42.0753 28.8784 42.0815C28.9134 42.0876 28.9494 42.0802 28.979 42.0606C29.0087 42.041 29.0297 42.0109 29.0378 41.9763C29.0459 41.9417 29.0404 41.9054 29.0225 41.8747L23.3281 30.2219ZM40.6706 30.2219L34.9762 41.8747C34.9625 41.9051 34.9602 41.9394 34.9697 41.9714C34.9792 42.0033 34.9999 42.0308 35.028 42.0488C35.056 42.0667 35.0896 42.074 35.1226 42.0692C35.1556 42.0645 35.1858 42.048 35.2077 42.0229L45.3327 30.2219H40.6706ZM25.5271 30.2219L31.8743 44.9534C31.8852 44.9782 31.903 44.9993 31.9256 45.0141C31.9482 45.0289 31.9746 45.0368 32.0017 45.0368C32.0287 45.0368 32.0551 45.0289 32.0778 45.0141C32.1004 44.9993 32.1182 44.9782 32.129 44.9534L38.4716 30.2219H25.5271Z" fill="#050609"/>
<path d="M22.8558 21.3335L18.666 28.7409H23.3466L26.5503 21.3335H22.8558ZM41.1429 21.3335H37.4484L40.6521 28.7409H45.3327L41.1429 21.3335ZM28.7818 21.3335L25.5781 28.7409H38.4206L35.2169 21.3335H28.7818Z" fill="#050609"/>
</g>
<defs>
<clipPath id="clip0_596_1577">
<rect width="26.6667" height="23.7037" fill="white" transform="translate(18.666 21.3335)"/>
</clipPath>
</defs>
</svg>
